<svg width="137" height="22" viewBox="0 0 137 22" fill="none" xmlns="http://www.w3.org/2000/svg">
<path d="M0.808838 17.1138L5.65859 0.139648H10.2659L15.0914 17.1138H12.3997L11.2843 13.1127H4.64014L3.5247 17.1138H0.808838ZM5.29486 10.6879H10.6296L8.15621 1.76432H7.76823L5.29486 10.6879Z" fill="#111827"/>
<path d="M23.0167 17.4533C21.8689 17.4533 20.8262 17.2108 19.8886 16.7258C18.9672 16.2408 18.2316 15.5376 17.682 14.6162C17.1485 13.6947 16.8818 12.5873 16.8818 11.2941V10.9788C16.8818 9.68557 17.1485 8.5863 17.682 7.68101C18.2316 6.75956 18.9672 6.05634 19.8886 5.57137C20.8262 5.07023 21.8689 4.81966 23.0167 4.81966C24.1645 4.81966 25.1425 5.02981 25.9508 5.45013C26.7591 5.87044 27.4057 6.42816 27.8907 7.12329C28.3919 7.81842 28.7152 8.5863 28.8607 9.42692L26.4358 9.93615C26.355 9.40267 26.1852 8.9177 25.9266 8.48122C25.6679 8.04474 25.3042 7.69718 24.8354 7.43852C24.3666 7.17987 23.7765 7.05054 23.0652 7.05054C22.3701 7.05054 21.7396 7.2122 21.1738 7.53552C20.6242 7.84267 20.1877 8.29531 19.8644 8.89345C19.5411 9.47542 19.3794 10.1867 19.3794 11.0273V11.2456C19.3794 12.0862 19.5411 12.8056 19.8644 13.4037C20.1877 14.0019 20.6242 14.4545 21.1738 14.7616C21.7396 15.0688 22.3701 15.2224 23.0652 15.2224C24.116 15.2224 24.9162 14.9556 25.4658 14.4222C26.0155 13.8725 26.363 13.1774 26.5085 12.3368L28.9334 12.8945C28.7394 13.719 28.3919 14.4787 27.8907 15.1739C27.4057 15.869 26.7591 16.4267 25.9508 16.847C25.1425 17.2512 24.1645 17.4533 23.0167 17.4533Z" fill="#111827"/>
<path d="M31.8141 17.1138V0.139648H34.3117V6.85655H34.6997C34.8613 6.5494 35.0877 6.25033 35.3787 5.95935C35.6858 5.66836 36.0819 5.43396 36.5668 5.25614C37.068 5.06215 37.6984 4.96515 38.4582 4.96515C39.3635 4.96515 40.1637 5.16722 40.8589 5.57137C41.5702 5.97552 42.1279 6.5494 42.532 7.29303C42.9362 8.02049 43.1383 8.90153 43.1383 9.93615V17.1138H40.6406V10.1301C40.6406 9.09552 40.382 8.33573 39.8647 7.85075C39.3474 7.34961 38.6361 7.09904 37.7308 7.09904C36.6962 7.09904 35.8636 7.43852 35.2332 8.11749C34.6189 8.79645 34.3117 9.78257 34.3117 11.0758V17.1138H31.8141Z" fill="#111827"/>
<path d="M50.8872 17.1138C50.1598 17.1138 49.5778 16.8955 49.1413 16.4591C48.721 16.0226 48.5109 15.4406 48.5109 14.7131V7.26878H45.213V5.15914H48.5109V1.20659H51.0085V5.15914H54.5731V7.26878H51.0085V14.2767C51.0085 14.7616 51.2348 15.0041 51.6875 15.0041H54.1851V17.1138H50.8872Z" fill="#111827"/>
<path d="M62.5613 17.4533C61.3489 17.4533 60.29 17.2027 59.3847 16.7015C58.4794 16.1842 57.7681 15.4649 57.2508 14.5434C56.7497 13.6058 56.4991 12.5227 56.4991 11.2941V11.0031C56.4991 9.75832 56.7497 8.67521 57.2508 7.75376C57.752 6.81614 58.4471 6.09676 59.3362 5.59562C60.2415 5.07831 61.2842 4.81966 62.4643 4.81966C63.6121 4.81966 64.6144 5.07831 65.4712 5.59562C66.3441 6.09676 67.0231 6.79997 67.5081 7.70526C67.993 8.61055 68.2355 9.66941 68.2355 10.8818V11.8275H59.0452C59.0776 12.8783 59.4251 13.7189 60.0879 14.3494C60.7669 14.9637 61.6075 15.2709 62.6098 15.2709C63.5474 15.2709 64.2506 15.0607 64.7195 14.6404C65.2044 14.2201 65.5762 13.7351 65.8349 13.1855L67.896 14.2524C67.6697 14.7051 67.3383 15.182 66.9018 15.6831C66.4815 16.1842 65.9238 16.6046 65.2287 16.944C64.5335 17.2835 63.6444 17.4533 62.5613 17.4533ZM59.0695 9.9119H65.6894C65.6247 9.00661 65.3014 8.3034 64.7195 7.80225C64.1375 7.28495 63.3777 7.02629 62.4401 7.02629C61.5024 7.02629 60.7346 7.28495 60.1364 7.80225C59.5545 8.3034 59.1988 9.00661 59.0695 9.9119Z" fill="#111827"/>
<path d="M71.242 17.1138V5.15914H73.6911V6.95355H74.0791C74.3054 6.46857 74.7096 6.01593 75.2915 5.59562C75.8735 5.17531 76.7384 4.96515 77.8861 4.96515C78.7914 4.96515 79.5916 5.16722 80.2868 5.57137C80.9981 5.97552 81.5558 6.5494 81.9599 7.29303C82.3641 8.02049 82.5662 8.90153 82.5662 9.93615V17.1138H80.0685V10.1301C80.0685 9.09552 79.8099 8.33573 79.2926 7.85075C78.7753 7.34961 78.064 7.09904 77.1587 7.09904C76.1241 7.09904 75.2915 7.43852 74.6611 8.11749C74.0468 8.79645 73.7396 9.78257 73.7396 11.0758V17.1138H71.242Z" fill="#111827"/>
<path d="M93.0715 17.4533C91.9076 17.4533 91.0104 17.2431 90.3799 16.8228C89.7656 16.4025 89.3049 15.9337 88.9978 15.4164H88.6098V17.1138H86.1607V0.139648H88.6583V6.78381H89.0463C89.2402 6.46049 89.4989 6.15334 89.8222 5.86235C90.1455 5.5552 90.5739 5.30463 91.1074 5.11064C91.6409 4.91665 92.2956 4.81966 93.0715 4.81966C94.0738 4.81966 94.9953 5.06215 95.8359 5.54712C96.6765 6.03209 97.3474 6.73531 97.8485 7.65676C98.3497 8.57821 98.6003 9.67749 98.6003 10.9546V11.3183C98.6003 12.6116 98.3416 13.7189 97.8243 14.6404C97.3232 15.5457 96.6523 16.2408 95.8117 16.7258C94.9872 17.2108 94.0738 17.4533 93.0715 17.4533ZM92.3441 15.2709C93.4272 15.2709 94.3163 14.9233 95.0115 14.2282C95.7227 13.533 96.0784 12.5388 96.0784 11.2456V11.0273C96.0784 9.75024 95.7308 8.76412 95.0357 8.06899C94.3406 7.37386 93.4434 7.02629 92.3441 7.02629C91.2771 7.02629 90.388 7.37386 89.6767 8.06899C88.9816 8.76412 88.634 9.75024 88.634 11.0273V11.2456C88.634 12.5388 88.9816 13.533 89.6767 14.2282C90.388 14.9233 91.2771 15.2709 92.3441 15.2709Z" fill="#111827"/>
<path d="M107.175 17.4533C105.963 17.4533 104.904 17.2027 103.999 16.7015C103.093 16.1842 102.382 15.4649 101.865 14.5434C101.364 13.6058 101.113 12.5227 101.113 11.2941V11.0031C101.113 9.75832 101.364 8.67521 101.865 7.75376C102.366 6.81614 103.061 6.09676 103.95 5.59562C104.855 5.07831 105.898 4.81966 107.078 4.81966C108.226 4.81966 109.228 5.07831 110.085 5.59562C110.958 6.09676 111.637 6.79997 112.122 7.70526C112.607 8.61055 112.849 9.66941 112.849 10.8818V11.8275H103.659C103.691 12.8783 104.039 13.7189 104.702 14.3494C105.381 14.9637 106.221 15.2709 107.224 15.2709C108.161 15.2709 108.865 15.0607 109.333 14.6404C109.818 14.2201 110.19 13.7351 110.449 13.1855L112.51 14.2524C112.284 14.7051 111.952 15.182 111.516 15.6831C111.095 16.1842 110.538 16.6046 109.843 16.944C109.147 17.2835 108.258 17.4533 107.175 17.4533ZM103.683 9.9119H110.303C110.239 9.00661 109.915 8.3034 109.333 7.80225C108.751 7.28495 107.992 7.02629 107.054 7.02629C106.116 7.02629 105.348 7.28495 104.75 7.80225C104.168 8.3034 103.813 9.00661 103.683 9.9119Z" fill="#111827"/>
<path d="M115.856 17.1138V5.15914H118.305V6.56557H118.693C118.887 6.06443 119.194 5.7007 119.614 5.47437C120.051 5.23189 120.584 5.11064 121.215 5.11064H122.646V7.36578H121.118C120.31 7.36578 119.647 7.5921 119.129 8.04474C118.612 8.48122 118.354 9.16018 118.354 10.0816V17.1138H115.856Z" fill="#111827"/>
<path d="M124.225 11.1971V10.8333C124.225 9.57241 124.476 8.49739 124.977 7.60826C125.494 6.71914 126.173 6.03209 127.014 5.54712C127.854 5.06215 128.776 4.81966 129.778 4.81966C130.942 4.81966 131.831 5.0379 132.445 5.47437C133.076 5.91085 133.537 6.37966 133.828 6.8808H134.216V5.15914H136.641V19.5629C136.641 20.2904 136.422 20.8723 135.986 21.3088C135.565 21.7453 134.983 21.9635 134.24 21.9635H126.189V19.7811H133.464C133.933 19.7811 134.167 19.5387 134.167 19.0537V15.2466H133.779C133.601 15.5376 133.351 15.8367 133.027 16.1438C132.704 16.451 132.276 16.7015 131.742 16.8955C131.225 17.0895 130.57 17.1865 129.778 17.1865C128.776 17.1865 127.846 16.9521 126.989 16.4833C126.149 15.9983 125.478 15.3113 124.977 14.4222C124.476 13.5169 124.225 12.4418 124.225 11.1971ZM130.457 15.0041C131.54 15.0041 132.429 14.6646 133.124 13.9857C133.836 13.2906 134.191 12.3368 134.191 11.1243V10.9061C134.191 9.66133 133.844 8.70754 133.149 8.04474C132.454 7.36578 131.556 7.02629 130.457 7.02629C129.39 7.02629 128.501 7.36578 127.79 8.04474C127.095 8.70754 126.747 9.66133 126.747 10.9061V11.1243C126.747 12.3368 127.095 13.2906 127.79 13.9857C128.501 14.6646 129.39 15.0041 130.457 15.0041Z" fill="#111827"/>
</svg>
